<svg xmlns="http://www.w3.org/2000/svg" viewBox="0 0 100 100" width="100" height="100">
  <defs>
    <linearGradient id="brainGradient" x1="0%" y1="0%" x2="100%" y2="100%">
      <stop offset="0%" style="stop-color:#8b5cf6;stop-opacity:1" />
      <stop offset="100%" style="stop-color:#a78bfa;stop-opacity:1" />
    </linearGradient>
  </defs>
  
  <!-- Brain shape -->
  <path d="M50 20 C35 20, 25 30, 25 40 C25 45, 27 50, 30 53 C28 55, 27 58, 27 61 C27 67, 32 72, 38 72 C40 75, 45 77, 50 77 C55 77, 60 75, 62 72 C68 72, 73 67, 73 61 C73 58, 72 55, 70 53 C73 50, 75 45, 75 40 C75 30, 65 20, 50 20 Z" 
        fill="url(#brainGradient)" 
        stroke="#6d28d9" 
        stroke-width="2"/>
  
  <!-- Brain details -->
  <ellipse cx="40" cy="40" rx="8" ry="10" fill="#c4b5fd" opacity="0.6"/>
  <ellipse cx="60" cy="40" rx="8" ry="10" fill="#c4b5fd" opacity="0.6"/>
  <path d="M35 50 Q40 55, 45 50 Q50 45, 55 50 Q60 55, 65 50" 
        stroke="#ddd6fe" 
        stroke-width="2" 
        fill="none"/>
  <path d="M30 60 Q35 63, 40 60 Q45 57, 50 60" 
        stroke="#ddd6fe" 
        stroke-width="2" 
        fill="none"/>
</svg>
